<svg width="16" height="17" viewBox="0 0 16 17" fill="none" xmlns="http://www.w3.org/2000/svg">
<path fill-rule="evenodd" clip-rule="evenodd" d="M15.5 6.99742H9.99996V1.49795C9.99996 1.22201 9.77611 0.997314 9.49998 0.997314H6.4999C6.22387 0.997314 5.99991 1.22201 5.99991 1.49795V6.99742H0.499994C0.223838 6.99742 7.62939e-06 7.22213 7.62939e-06 7.49847V10.4977C7.62939e-06 10.7732 0.223838 10.9975 0.499994 10.9975H5.99991V16.4978C5.99991 16.7733 6.22387 16.998 6.4999 16.998H9.49998C9.77611 16.998 9.99996 16.7733 9.99996 16.4978V10.9975H15.5C15.776 10.9975 16 10.7732 16 10.4977V7.49847C16 7.22213 15.776 6.99742 15.5 6.99742Z" fill="white"/>
</svg>
